<svg height="480pt" viewBox="-32 0 479 480" width="480pt" xmlns="http://www.w3.org/2000/svg"><path d="m56.5 32c-4.417969 0-8 3.582031-8 8s3.582031 8 8 8h80c4.417969 0 8-3.582031 8-8s-3.582031-8-8-8zm0 0"/><path d="m328.5 32h-160c-4.417969 0-8 3.582031-8 8s3.582031 8 8 8h160c4.417969 0 8-3.582031 8-8s-3.582031-8-8-8zm0 0"/><path d="m164.660156 416h-124.160156c-13.253906 0-24-10.746094-24-24v-320c6.902344 5.234375 15.335938 8.046875 24 8h280v132.71875c0 4.417969 3.582031 8 8 8s8-3.582031 8-8v-140.71875c0-4.417969-3.582031-8-8-8h-288c-13.253906 0-24-10.746094-24-24s10.746094-24 24-24h288c4.417969 0 8-3.582031 8-8s-3.582031-8-8-8h-288c-22.089844 0-40 17.910156-40 40v352c0 22.089844 17.910156 40 40 40h124.160156c4.417969 0 8-3.582031 8-8s-3.582031-8-8-8zm0 0"/><path d="m296.5 240c-25.976562-.074219-51.265625 8.351562-72 24-3.535156 2.652344-4.25 7.664062-1.601562 11.199219 2.652343 3.535156 7.667968 4.25 11.203124 1.601562 17.96875-13.566406 39.882813-20.871093 62.398438-20.800781 57.4375 0 104 46.5625 104 104s-46.5625 104-104 104-104-46.5625-104-104c-.019531-22.433594 7.285156-44.257812 20.800781-62.160156 2.714844-3.535156 2.054688-8.601563-1.480469-11.320313-3.535156-2.714843-8.601562-2.054687-11.320312 1.480469-33.390625 44.523438-31.789062 106.160156 3.871094 148.890625 35.660156 42.726563 96.015625 55.328125 145.792968 30.441406 49.78125-24.890625 75.914063-80.738281 63.125-134.902343-12.785156-54.164063-61.136718-92.429688-116.789062-92.429688zm0 0"/><path d="m266.421875 417.921875c2.203125.226563 4.40625-.46875 6.078125-1.921875l90.078125-90.878906c1.515625-1.503906 2.367187-3.546875 2.367187-5.679688 0-2.132812-.851562-4.179687-2.367187-5.679687-3.117187-3.101563-8.15625-3.101563-11.277344 0l-84.878906 84.878906-28.242187-28.320313c-3.136719-3.136718-8.222657-3.136718-11.359376 0-3.136718 3.136719-3.136718 8.222657 0 11.359376l34 34.320312c1.550782 1.332031 3.554688 2.019531 5.601563 1.921875zm0 0"/><path d="m272.5 184v-48c0-4.417969-3.582031-8-8-8h-176c-4.417969 0-8 3.582031-8 8v16c0 4.417969 3.582031 8 8 8s8-3.582031 8-8v-8h160v32h-168c-4.417969 0-8 3.582031-8 8s3.582031 8 8 8h176c4.417969 0 8-3.582031 8-8zm0 0"/><path d="m88.5 224c-4.417969 0-8 3.582031-8 8s3.582031 8 8 8h128c4.417969 0 8-3.582031 8-8s-3.582031-8-8-8zm0 0"/><path d="m168.5 272h-80c-4.417969 0-8 3.582031-8 8s3.582031 8 8 8h80c4.417969 0 8-3.582031 8-8s-3.582031-8-8-8zm0 0"/><path d="m136.5 336c4.417969 0 8-3.582031 8-8s-3.582031-8-8-8h-48c-4.417969 0-8 3.582031-8 8s3.582031 8 8 8zm0 0"/></svg>